<svg width="220" height="102" viewBox="0 0 220 102" fill="none" xmlns="http://www.w3.org/2000/svg">
<g clip-path="url(#clip0)">
<path d="M29.9745 24.3274C29.9745 23.4937 29.9608 22.6873 29.9196 21.9356C29.8785 21.1839 29.8236 20.3776 29.7414 19.5439C29.7414 18.7785 29.7825 18.0542 29.8511 17.3708C29.9288 16.6622 30.1185 15.9703 30.4132 15.3208C31.6198 12.5874 33.585 11.7127 36.3088 12.6967C38.0501 13.38 39.2018 14.1454 39.7639 14.9791C40.3261 15.8128 40.5317 17.2205 40.3809 19.2022C40.2301 21.6349 40.0382 24.095 39.8051 26.5688C39.572 29.0425 39.38 31.5026 39.2292 33.9353C39.0784 34.769 38.9413 35.589 38.8316 36.3954C38.7202 37.2132 38.7387 38.0434 38.8865 38.8554C38.9831 39.7655 39.2334 40.6527 39.6268 41.4795C40.0519 42.3952 40.1753 43.2289 40.0244 43.9943C39.8736 44.8279 39.4486 45.607 38.7631 46.3313C38.1014 47.0044 37.6614 47.8626 37.5017 48.7914C37.1178 50.9235 36.7339 53.0282 36.35 55.1329C35.966 57.2662 35.966 59.4505 36.35 61.5838C36.6516 63.2648 36.4871 64.6589 35.829 65.8069C35.1708 66.9549 34.2111 67.9799 32.9086 68.882C32.0722 69.4833 31.2084 69.702 30.3309 69.5107C29.4535 69.3193 28.8228 68.6906 28.4389 67.6246C27.9891 66.4899 27.6984 65.2987 27.5751 64.0848C27.4654 62.8685 27.3968 61.6521 27.3968 60.4357V56.1579C27.3968 54.7502 27.3557 53.2879 27.2872 51.7571C27.1363 50.6911 26.5605 50.2674 25.5733 50.4998C23.9692 50.8005 22.365 51.0875 20.7608 51.3608C19.1567 51.6341 17.5525 51.9485 15.9484 52.3312C14.6458 52.6318 13.9192 53.5065 13.7684 54.9552C13.6175 56.1033 13.4941 57.224 13.4256 58.3173C13.357 59.4107 13.2336 60.5451 13.0828 61.6794C12.8497 63.6612 12.1642 65.2329 11.0262 66.4219C9.81021 67.6447 8.32071 68.5627 6.67989 69.1006C5.99436 69.333 5.40479 69.292 4.91121 68.9913C4.41762 68.6906 4.12969 68.1576 4.04743 67.3923C4.04743 65.7932 4.03372 64.1805 3.99259 62.5405C3.95145 60.9004 3.93774 59.2467 3.93774 57.5793C3.94928 56.5146 3.79668 55.4544 3.48529 54.4359C3.18365 53.4792 2.49811 52.5908 1.42867 51.7571C-0.47712 50.3084 -0.47712 48.9372 1.42867 47.6434C2.7312 46.7277 3.54013 45.7026 3.89661 44.5683C4.25309 43.4339 4.33536 42.1355 4.18454 40.6868C4.03372 38.1721 3.95145 35.6437 3.95145 33.1016C3.94411 30.5219 3.51815 27.9604 2.69007 25.5164C2.30616 24.218 2.41585 23.0837 3.03283 22.086C3.60707 21.1293 4.49986 20.4038 5.55561 20.0359C6.77587 19.6532 8.10581 19.7352 9.55915 20.2682C11.0125 20.8013 11.9585 21.6349 12.4247 22.783C12.9722 24.2892 13.3179 25.8608 13.453 27.4571C13.6861 29.6712 13.8369 31.8169 13.9055 33.908C13.974 35.999 14.0974 38.1448 14.2482 40.3588C14.3174 40.8708 14.3541 41.3866 14.3579 41.9032C14.3618 42.4198 14.3984 42.9356 14.4676 43.4476C14.5362 44.5136 15.2354 45.1286 16.5242 45.279C18.2559 45.4311 20.0009 45.2785 21.6795 44.8279C23.3522 44.3769 25.0386 43.8713 26.7113 43.3382C26.9635 43.2735 27.2002 43.1592 27.4074 43.0019C27.6146 42.8447 27.7882 42.6477 27.9179 42.4225C28.1823 41.9623 28.3589 41.4572 28.4389 40.9328C28.6054 38.1779 28.9351 35.4351 29.426 32.7189C29.9499 29.9543 30.1341 27.1364 29.9745 24.3274Z" fill="#7E7C7B"/>
<path d="M69.3518 61.1054C68.5291 61.1054 67.6928 61.078 66.8427 61.0097C65.9926 60.9414 65.1151 60.8457 64.2239 60.709C62.5286 60.49 60.8607 60.0961 59.2469 59.5337C57.5742 58.9597 56.0249 57.921 54.5853 56.4176C53.235 54.9146 52.002 53.3109 50.8971 51.6204C49.7293 49.8357 48.9925 47.8054 48.7445 45.6889C48.402 42.7902 48.3515 39.8645 48.5937 36.9557C48.8261 34.2401 49.322 31.5534 50.0744 28.9331C50.9058 26.2568 52.042 23.6843 53.461 21.2659C54.938 18.7653 56.69 16.4366 58.6848 14.323C60.1244 12.888 61.7286 11.904 63.4973 11.3573L63.5932 11.2616C63.9093 11.1361 64.2348 11.0356 64.5667 10.9609C64.8867 10.8933 65.2131 10.8612 65.5402 10.8653C65.8583 10.8602 66.1732 10.9305 66.4588 11.0703C67.9994 12.0181 69.7762 12.5154 71.5866 12.5053C72.135 12.5053 72.6286 12.4917 73.0674 12.4507C73.5061 12.4097 73.9997 12.3686 74.5481 12.3003C74.8687 12.2366 75.1947 12.2046 75.5216 12.2046C75.8484 12.2047 76.1745 12.1727 76.4951 12.109H77.825C83.7069 12.109 88.3868 13.913 91.8648 17.5211C93.7706 19.5029 95.2239 21.8855 96.2248 24.669C97.2257 27.4525 97.6507 30.4821 97.4999 33.7576C97.1572 38.8691 95.7907 43.4339 93.4004 47.452C91.0102 51.4701 87.6967 54.773 83.4601 57.3606C79.4566 59.848 74.7401 61.1054 69.3518 61.1054ZM75.3982 18.3002C73.9189 18.302 72.4439 18.4578 70.997 18.7648C69.521 19.0616 68.0787 19.5057 66.6919 20.0905C65.3632 20.6442 64.1211 21.3853 63.0037 22.2909C61.9612 23.1106 61.1215 24.158 60.5494 25.3524C57.0669 32.7736 55.8375 39.721 56.8613 46.1946C57.0422 47.0849 57.2991 47.9583 57.6291 48.805C57.9993 49.7891 58.6985 50.5954 59.7268 51.2104C61.0482 52.0081 62.4173 52.7247 63.8263 53.3562C65.3374 54.0402 66.9792 54.3899 68.6388 54.3812C69.1523 54.3855 69.6654 54.3536 70.1744 54.2855C70.6911 54.2118 71.2037 54.1115 71.71 53.9849C73.7688 53.3822 75.7621 52.5764 77.6605 51.5794C79.7259 50.5171 81.5982 49.1174 83.1996 47.4383C84.8449 45.7299 86.1931 43.6525 87.2443 41.2061C88.2954 38.7597 88.8256 35.7985 88.8347 32.3226C89.0404 27.2794 87.3997 23.4299 83.9126 20.7739C81.856 19.1202 79.0178 18.2956 75.3982 18.3002Z" fill="#7E7C7B"/>
<path d="M147.448 29.8899C144.651 39.1288 139.478 47.1559 131.928 53.9712C129.898 55.8436 127.714 57.1557 125.374 57.9073C123.003 58.6657 120.528 59.0485 118.039 59.0417C115.982 59.0554 114.213 58.6044 112.733 57.716C111.245 56.8153 109.943 55.6421 108.894 54.2582C107.468 52.3039 106.572 50.2356 106.206 48.0534C105.317 43.5915 105.086 39.0241 105.521 34.4957C105.986 29.8717 106.937 25.3092 108.359 20.8833C108.455 20.5553 108.564 20.2409 108.674 19.9539C108.784 19.6669 108.935 19.3662 109.099 19.0382C109.661 17.8219 110.292 17.0018 110.978 16.5645C111.663 16.1272 112.609 15.9358 113.802 15.9905C115.324 16.0998 116.517 16.5235 117.38 17.2342C118.244 17.9449 118.628 18.9289 118.56 20.1589C118.494 20.9049 118.351 21.6422 118.135 22.3593L117.518 24.5324C116.873 27.0335 116.243 29.5619 115.667 32.1176C115.08 34.6482 114.695 37.2211 114.515 39.8122C114.473 41.1628 114.528 42.5148 114.679 43.8576C114.833 45.1844 115.076 46.4994 115.406 47.7937C116.051 50.5135 117.888 51.2515 120.932 50.0351C123.386 49.1331 125.442 47.8347 127.101 46.14C128.763 44.4419 130.268 42.5986 131.599 40.6322C134.05 36.8789 136.091 32.8743 137.686 28.6872C139.206 24.6378 140.004 20.3548 140.044 16.0315L140.072 14.8014C140.074 14.0669 140.175 13.3359 140.373 12.6284C140.565 11.945 141.155 11.3983 142.115 11.002C142.91 10.715 143.582 10.7287 144.13 11.0157C144.664 11.3038 145.177 11.628 145.666 11.986C147.434 13.2297 148.422 14.9791 148.627 17.2068C148.886 19.164 148.941 21.1426 148.792 23.111C148.655 25.0107 148.202 27.2658 147.448 29.8899Z" fill="#7E7C7B"/>
<path d="M162.859 50.4724H162.653C161.077 50.3358 159.815 49.6934 158.856 48.5317C157.827 47.3017 157.416 45.9076 157.622 44.3496C158.026 43.2048 158.32 42.0241 158.499 40.8235C158.664 39.6344 158.828 38.4591 158.965 37.2974C159.034 36.6824 159.089 36.0673 159.116 35.4523C159.149 34.8309 159.236 34.2136 159.377 33.6073C160.119 29.4246 160.495 25.1855 160.501 20.9379C160.501 16.7831 160.432 12.6602 160.295 8.56922V8.47355C160.227 7.58519 160.172 6.69683 160.144 5.82214C160.104 4.9673 160.154 4.11058 160.295 3.2664C160.397 2.37999 160.793 1.5528 161.419 0.915663C162.036 0.300645 162.818 -3.18942e-05 163.778 -3.18942e-05C164.382 -0.00238767 164.979 0.13812 165.519 0.40998C167.63 1.23 169.18 2.65138 170.126 4.70144C170.263 5.04311 170.414 5.38479 170.592 5.72647C170.77 6.06814 170.921 6.40982 171.058 6.7515C171.607 7.9132 172.169 9.10223 172.745 10.3323C173.319 11.5502 173.783 12.8173 174.129 14.118C174.596 15.5839 175.16 17.0175 175.816 18.4095C176.46 19.7762 177.091 21.1292 177.708 22.4959C178.119 23.2476 178.53 24.0267 178.942 24.8467C179.353 25.6667 179.723 26.4867 180.066 27.2931C180.614 28.5915 181.533 29.2338 182.836 29.2338C184.001 29.2338 184.947 28.6598 185.701 27.4981C188.894 22.7127 191.055 17.3189 192.049 11.658C192.116 11.3374 192.167 11.0135 192.2 10.6876C192.233 10.3618 192.284 10.0379 192.351 9.71725C192.347 9.39294 192.366 9.06876 192.406 8.74689C192.439 8.42103 192.489 8.09713 192.557 7.77653C193.105 5.46679 194.339 4.30509 196.245 4.30509C196.994 4.28582 197.736 4.46002 198.397 4.81077C201.948 6.17748 204.17 8.28676 205.061 11.1386C205.404 12.1637 205.746 13.1887 206.089 14.2C206.432 15.2114 206.775 16.2091 207.117 17.1658C207.529 18.3958 207.954 19.6395 208.392 20.8969C208.831 22.1543 209.229 23.439 209.572 24.7237L209.668 25.0244C210.627 28.2908 211.72 31.5435 212.944 34.7826C214.178 38.0217 216.016 41.0285 218.484 43.8302C219.649 45.1286 220.143 46.1263 219.964 46.8506C219.786 47.575 219.608 48.067 219.402 48.3267C218.991 49.01 218.237 49.3517 217.154 49.3517C215.92 49.3517 214.768 48.9144 213.671 48.026C211.011 46.1263 208.927 43.5979 207.419 40.4681C206.8 39.0981 206.251 37.6977 205.774 36.2723C205.294 34.8373 204.814 33.4159 204.334 31.9809C203.991 31.0242 203.662 30.0812 203.361 29.1245C203.059 28.1678 202.73 27.2248 202.387 26.2681C201.839 24.6963 200.783 23.9173 199.206 23.9173C198.041 23.9173 197.054 24.3957 196.231 25.3524C195.579 26.0455 195.075 26.864 194.75 27.7578C194.463 28.5405 194.238 29.3449 194.078 30.1632C193.943 30.615 193.842 31.0765 193.777 31.5435C193.708 31.9809 193.612 32.4866 193.475 33.0196C193.132 34.318 192.803 35.63 192.502 36.9557C192.2 38.2814 191.871 39.6344 191.528 40.9875C191.254 41.9442 190.952 42.5592 190.61 42.8325C190.228 43.1192 189.757 43.2641 189.28 43.2425C188.834 43.2526 188.389 43.2206 187.95 43.1469C184.879 42.6685 182.548 41.1378 180.985 38.5547C180.368 37.598 179.737 36.6824 179.093 35.794C178.448 34.9056 177.776 34.0583 177.091 33.2383L176.172 32.0082C175.5 31.0589 174.707 30.1999 173.814 29.4525C173.131 28.8668 172.261 28.5422 171.36 28.5368C170.945 28.5248 170.533 28.5961 170.146 28.7464C169.76 28.8966 169.408 29.1228 169.111 29.4115C168.494 29.9855 168.124 30.7509 167.987 31.7075C167.781 33.3476 167.576 34.974 167.37 36.614C167.164 38.2541 166.959 39.8531 166.753 41.4112L166.451 44.4726C166.383 44.6092 166.355 44.8826 166.355 45.2926C166.366 45.5333 166.333 45.7739 166.259 46.0033C165.889 48.969 164.765 50.4724 162.859 50.4724Z" fill="#7E7C7B"/>
<path d="M51.089 72.49C51.6512 73.2827 52.227 74.0617 52.8303 74.8134C53.4336 75.5651 54.0094 76.2895 54.5579 76.9865C58.9087 82.918 64.0366 86.9999 69.9413 89.2322C75.8461 91.4645 82.3541 92.3118 89.4654 91.7743C94.4503 91.3507 99.3957 90.5511 104.259 89.3825C109.149 88.2014 113.914 86.5585 118.491 84.476C121.05 83.451 123.559 82.3349 126.018 81.1276C128.471 79.9212 130.72 78.3395 132.682 76.4398C134.341 74.9364 135.945 73.4057 137.508 71.875C139.095 70.2974 140.498 68.546 141.69 66.6542C142.855 65.0141 144.007 64.1531 145.145 64.0848C146.283 64.0165 147.585 64.5631 149.039 65.7522C149.779 66.4355 150.19 67.1599 150.273 67.9116C150.351 68.6867 150.285 69.4695 150.081 70.2213C149.519 72.1894 148.682 73.7474 147.558 74.9091C145.061 77.9878 142.264 80.8125 139.208 83.3417C136.175 85.8439 132.937 88.0886 129.528 90.0522C124.009 93.237 118.156 95.8081 112.074 97.7194C106.023 99.5932 99.7998 100.861 93.4964 101.505C93.0165 101.56 92.5778 101.628 92.1527 101.71C91.7065 101.802 91.2487 101.825 90.7954 101.779C81.8011 102.53 73.7072 101.373 66.5136 98.3071C59.3201 95.2411 53.0451 90.0385 47.6888 82.6993C45.9201 80.4033 44.7318 77.72 44.124 74.6494C43.4933 71.383 44.8872 70.0983 48.3058 70.7953C49.2929 70.8773 50.2115 71.4377 51.089 72.49Z" fill="#7E7C7B"/>
</g>
<defs>
<clipPath id="clip0">
<rect width="220" height="102" fill="white"/>
</clipPath>
</defs>
</svg>
